<svg width="20" height="16" viewBox="0 0 20 16" fill="none" xmlns="http://www.w3.org/2000/svg">
<path d="M18.827 8.75H16.7115C16.4986 8.75 16.3205 8.67817 16.177 8.5345C16.0333 8.391 15.9615 8.21284 15.9615 8C15.9615 7.78717 16.0333 7.609 16.177 7.4655C16.3205 7.32184 16.4986 7.25 16.7115 7.25H18.827C19.0398 7.25 19.218 7.32184 19.3615 7.4655C19.5051 7.609 19.577 7.78717 19.577 8C19.577 8.21284 19.5051 8.391 19.3615 8.5345C19.218 8.67817 19.0398 8.75 18.827 8.75ZM14.6672 12.7135C14.7954 12.5378 14.9592 12.4365 15.1587 12.4095C15.3581 12.3827 15.5456 12.4333 15.7212 12.5615L17.4077 13.8288C17.5834 13.9571 17.6846 14.1209 17.7115 14.3203C17.7385 14.5196 17.6878 14.7071 17.5595 14.8828C17.4313 15.0583 17.2676 15.1595 17.0682 15.1865C16.8689 15.2135 16.6814 15.1628 16.5057 15.0345L14.8192 13.7673C14.6436 13.6391 14.5423 13.4753 14.5155 13.276C14.4885 13.0767 14.5391 12.8892 14.6672 12.7135ZM17.3692 2.13275L15.6827 3.4C15.5071 3.52817 15.3196 3.57884 15.1202 3.552C14.9209 3.525 14.7571 3.42367 14.6287 3.248C14.5006 3.0725 14.45 2.885 14.477 2.6855C14.5038 2.48617 14.6051 2.32242 14.7807 2.19425L16.4672 0.927004C16.6429 0.798838 16.8304 0.748171 17.0297 0.775004C17.2291 0.802004 17.3929 0.903254 17.5212 1.07875C17.6494 1.25442 17.7 1.44192 17.673 1.64125C17.6461 1.84075 17.5449 2.00459 17.3692 2.13275ZM3.24997 10.577H2.23072C1.73206 10.577 1.30614 10.4003 0.952974 10.047C0.59964 9.69384 0.422974 9.26792 0.422974 8.76925V7.23075C0.422974 6.73209 0.59964 6.30617 0.952974 5.953C1.30614 5.59967 1.73206 5.423 2.23072 5.423H6.09622L9.20572 3.5635C9.50706 3.38267 9.81089 3.38109 10.1172 3.55875C10.4237 3.73625 10.577 3.99742 10.577 4.34225V11.6578C10.577 12.0026 10.4237 12.2638 10.1172 12.4413C9.81089 12.6189 9.50706 12.6173 9.20572 12.4365L6.09622 10.577H4.74997V13.7308C4.74997 13.9436 4.67814 14.1218 4.53447 14.2653C4.39097 14.4089 4.21281 14.4808 3.99997 14.4808C3.78714 14.4808 3.60897 14.4089 3.46547 14.2653C3.32181 14.1218 3.24997 13.9436 3.24997 13.7308V10.577ZM9.07697 10.5848V5.41525L6.51147 6.923H2.23072C2.15389 6.923 2.08339 6.95509 2.01922 7.01925C1.95506 7.08342 1.92297 7.15392 1.92297 7.23075V8.76925C1.92297 8.84609 1.95506 8.91659 2.01922 8.98075C2.08339 9.04492 2.15389 9.077 2.23072 9.077H6.51147L9.07697 10.5848ZM11.9615 11.1193V4.88075C12.3538 5.23592 12.6698 5.68334 12.9095 6.223C13.1493 6.76284 13.2692 7.35517 13.2692 8C13.2692 8.64484 13.1493 9.23717 12.9095 9.777C12.6698 10.3167 12.3538 10.7641 11.9615 11.1193Z" fill="#121014"/>
</svg>
