<svg width="20" height="22" viewBox="0 0 20 22" fill="none" xmlns="http://www.w3.org/2000/svg">
<path d="M3 21.1922C2.78717 21.1922 2.609 21.1204 2.4655 20.9767C2.32183 20.8332 2.25 20.6551 2.25 20.4422C2.25 20.2294 2.32183 20.0512 2.4655 19.9077C2.609 19.7641 2.78717 19.6922 3 19.6922H17C17.2128 19.6922 17.391 19.7641 17.5345 19.9077C17.6782 20.0512 17.75 20.2294 17.75 20.4422C17.75 20.6551 17.6782 20.8332 17.5345 20.9767C17.391 21.1204 17.2128 21.1922 17 21.1922H3ZM3 2.30774C2.78717 2.30774 2.609 2.23591 2.4655 2.09224C2.32183 1.94874 2.25 1.77057 2.25 1.55774C2.25 1.34491 2.32183 1.16674 2.4655 1.02324C2.609 0.879572 2.78717 0.807739 3 0.807739H17C17.2128 0.807739 17.391 0.879572 17.5345 1.02324C17.6782 1.16674 17.75 1.34491 17.75 1.55774C17.75 1.77057 17.6782 1.94874 17.5345 2.09224C17.391 2.23591 17.2128 2.30774 17 2.30774H3ZM10 12.5C10.7628 12.5 11.4118 12.2324 11.947 11.6972C12.4823 11.1619 12.75 10.5128 12.75 9.74999C12.75 8.98716 12.4823 8.33816 11.947 7.80299C11.4118 7.26766 10.7628 6.99999 10 6.99999C9.23717 6.99999 8.58817 7.26766 8.053 7.80299C7.51767 8.33816 7.25 8.98716 7.25 9.74999C7.25 10.5128 7.51767 11.1619 8.053 11.6972C8.58817 12.2324 9.23717 12.5 10 12.5ZM2.30775 18.5C1.80258 18.5 1.375 18.325 1.025 17.975C0.675 17.625 0.5 17.1974 0.5 16.6922V5.30774C0.5 4.80257 0.675 4.37499 1.025 4.02499C1.375 3.67499 1.80258 3.49999 2.30775 3.49999H17.6923C18.1974 3.49999 18.625 3.67499 18.975 4.02499C19.325 4.37499 19.5 4.80257 19.5 5.30774V16.6922C19.5 17.1974 19.325 17.625 18.975 17.975C18.625 18.325 18.1974 18.5 17.6923 18.5H2.30775ZM4.404 17C5.154 16.1948 6.00142 15.5769 6.94625 15.1462C7.89108 14.7154 8.909 14.5 10 14.5C11.091 14.5 12.1089 14.7154 13.0538 15.1462C13.9986 15.5769 14.846 16.1948 15.596 17H17.6923C17.7693 17 17.8398 16.9679 17.9038 16.9037C17.9679 16.8397 18 16.7692 18 16.6922V5.30774C18 5.23074 17.9679 5.16024 17.9038 5.09624C17.8398 5.03207 17.7693 4.99999 17.6923 4.99999H2.30775C2.23075 4.99999 2.16025 5.03207 2.09625 5.09624C2.03208 5.16024 2 5.23074 2 5.30774V16.6922C2 16.7692 2.03208 16.8397 2.09625 16.9037C2.16025 16.9679 2.23075 17 2.30775 17H4.404ZM6.7 17H13.3C12.8167 16.6667 12.2958 16.4167 11.7375 16.25C11.1792 16.0833 10.6 16 10 16C9.4 16 8.82083 16.0833 8.2625 16.25C7.70417 16.4167 7.18333 16.6667 6.7 17ZM10 11C9.6525 11 9.35733 10.8786 9.1145 10.6357C8.8715 10.3927 8.75 10.0975 8.75 9.74999C8.75 9.40266 8.8715 9.10749 9.1145 8.86449C9.35733 8.62149 9.6525 8.49999 10 8.49999C10.3475 8.49999 10.6427 8.62149 10.8855 8.86449C11.1285 9.10749 11.25 9.40266 11.25 9.74999C11.25 10.0975 11.1285 10.3927 10.8855 10.6357C10.6427 10.8786 10.3475 11 10 11Z" fill="#272529"/>
</svg>
