<svg width="95" height="95" viewBox="0 0 95 95" fill="none" xmlns="http://www.w3.org/2000/svg">
<path d="M61.6071 10.6898L84.2672 33.2638L29.4972 88.0298L6.92715 65.4598L61.6071 10.6898ZM0.0251509 92.0568C-0.0881291 92.8576 0.185311 93.6662 0.763431 94.2326C1.32593 94.8185 2.13843 95.092 2.93923 94.9709L21.9622 92.7951L2.18123 72.9671L0.0251509 92.0568ZM92.0801 11.8658L83.0255 2.81108C79.3107 -0.923323 73.2755 -0.938923 69.5415 2.77592C69.5297 2.78764 69.518 2.79936 69.5063 2.81108L67.7875 4.52988L90.4245 27.1039L92.1433 25.3851C95.8777 21.6703 95.8933 15.6351 92.1785 11.9011L92.1433 11.8659L92.0801 11.8658Z" fill="black"/>
</svg>
