<svg width="18" height="12" viewBox="0 0 18 12" fill="none" xmlns="http://www.w3.org/2000/svg">
<path d="M1.25 11.6345C1.0375 11.6345 0.859417 11.5626 0.71575 11.4188C0.571917 11.2751 0.5 11.0969 0.5 10.8843C0.5 10.6718 0.571917 10.4937 0.71575 10.35C0.859417 10.2065 1.0375 10.1348 1.25 10.1348H16.75C16.9625 10.1348 17.1406 10.2066 17.2843 10.3503C17.4281 10.4941 17.5 10.6723 17.5 10.885C17.5 11.0975 17.4281 11.2756 17.2843 11.4193C17.1406 11.5628 16.9625 11.6345 16.75 11.6345H1.25ZM1.25 6.75001C1.0375 6.75001 0.859417 6.67809 0.71575 6.53426C0.571917 6.39043 0.5 6.21226 0.5 5.99976C0.5 5.78709 0.571917 5.60901 0.71575 5.46551C0.859417 5.32184 1.0375 5.25001 1.25 5.25001H16.75C16.9625 5.25001 17.1406 5.32193 17.2843 5.46576C17.4281 5.60959 17.5 5.78776 17.5 6.00026C17.5 6.21293 17.4281 6.39101 17.2843 6.53451C17.1406 6.67818 16.9625 6.75001 16.75 6.75001H1.25ZM1.25 1.86526C1.0375 1.86526 0.859417 1.79343 0.71575 1.64976C0.571917 1.50593 0.5 1.32768 0.5 1.11501C0.5 0.902508 0.571917 0.724425 0.71575 0.580759C0.859417 0.437259 1.0375 0.365509 1.25 0.365509H16.75C16.9625 0.365509 17.1406 0.437426 17.2843 0.581259C17.4281 0.724926 17.5 0.903093 17.5 1.11576C17.5 1.32826 17.4281 1.50634 17.2843 1.65001C17.1406 1.79351 16.9625 1.86526 16.75 1.86526H1.25Z" fill="#121014"/>
</svg>
