<svg width="20" height="18" viewBox="0 0 20 18" fill="none" xmlns="http://www.w3.org/2000/svg">
<path d="M2 16H6.3365V8H2V16ZM7.8365 16H12.1635V2H7.8365V16ZM13.6635 16H18V10H13.6635V16ZM0.5 15.6923V8.30775C0.5 7.81058 0.677 7.385 1.031 7.031C1.385 6.677 1.81058 6.5 2.30775 6.5H6.3365V2.30775C6.3365 1.81058 6.5135 1.385 6.8675 1.031C7.2215 0.677 7.64708 0.5 8.14425 0.5H11.8558C12.3529 0.5 12.7785 0.677 13.1325 1.031C13.4865 1.385 13.6635 1.81058 13.6635 2.30775V8.5H17.6923C18.1894 8.5 18.615 8.677 18.969 9.031C19.323 9.385 19.5 9.81058 19.5 10.3077V15.6923C19.5 16.1894 19.323 16.615 18.969 16.969C18.615 17.323 18.1894 17.5 17.6923 17.5H2.30775C1.81058 17.5 1.385 17.323 1.031 16.969C0.677 16.615 0.5 16.1894 0.5 15.6923Z" fill="#272529"/>
</svg>
