<svg width="66" height="76" viewBox="0 0 66 76" fill="none" xmlns="http://www.w3.org/2000/svg">
<path d="M33.0938 0C29.608 0 27.19 1.29629 25.4062 2.65619C23.6225 4.01609 22.3763 5.30899 20.25 6.15619C19.8706 6.29503 19.5422 6.54546 19.3079 6.87457C19.0736 7.20369 18.9445 7.59607 18.9375 8H0V12H66V8H47.0625C47.0555 7.59607 46.9264 7.20369 46.6921 6.87457C46.4578 6.54546 46.1294 6.29503 45.75 6.15619C43.6091 5.30539 42.2977 4.00439 40.5312 2.65619C38.7648 1.30799 36.4158 0 33.0938 0ZM33.0938 4C35.4818 4 36.5846 4.69189 38.0938 5.84369C38.8933 6.45389 39.7653 7.2373 40.8438 8H25.0937C26.1717 7.2289 27.0439 6.45349 27.8437 5.84369C29.3391 4.70369 30.4828 4 33.0938 4ZM6 14V67.0312C6 73.0142 8.98459 76 15.0312 76H51.0312C56.9905 76 60 73.0142 60 67.0312V14H6ZM17 27H21V63H17V27ZM31 27H35V63H31V27ZM45 27H49V63H45V27Z" fill="black"/>
</svg>
